<svg version="1.2" xmlns="http://www.w3.org/2000/svg" viewBox="0 0 182 230" width="182" height="230">
	<style>
		.s0 { fill: #0741ad } 
		.s1 { opacity: .99;fill: #eef4fd } 
	</style>
	<g id="Background">
		<path id="Path 1" class="s0" d="m90.47 25.97c-3.28 1.64-8.56 5.02-11.72 7.5-3.16 2.49-7.58 6.89-9.81 9.78-2.24 2.89-4.49 6.83-5 8.75-0.51 1.92-0.92 5.08-0.92 7 0.01 1.92 0.68 6.42 1.5 10 0.81 3.58 1.26 6.61 0.98 6.75-0.27 0.14-1.96-1.78-3.75-4.27-1.79-2.49-3.92-4.51-4.75-4.51-0.83 0.01-2.4 0.63-3.5 1.38-1.1 0.75-3.3 4.24-4.89 7.75-2.45 5.43-2.82 7.31-2.42 12.4 0.27 3.44 1.51 8.13 2.89 10.98 1.33 2.75 4.67 7.43 7.42 10.42 3.71 4.03 4.61 5.56 3.5 5.93-0.83 0.27-2.96 1.99-4.75 3.83-2.57 2.64-3.25 4.18-3.25 7.34 0 2.2 0.6 5.46 1.33 7.25 0.73 1.79 2.42 3.98 3.75 4.86 1.33 0.89 3.88 1.9 5.67 2.25 2.47 0.49 3.83 1.66 5.68 4.89 1.33 2.34 2.68 5.82 2.99 7.75 0.31 1.93 0.82 6.43 1.12 10 0.31 3.57 0.77 8.53 1.02 11 0.25 2.47 0.65 5.63 0.88 7 0.23 1.38 0.71 3.85 1.08 5.5 0.37 1.65 0.81 3.45 0.97 4 0.17 0.55 0.69 2.06 1.16 3.36 0.47 1.3 2.2 3.19 3.85 4.22 1.78 1.1 4.91 1.87 7.68 1.89 2.83 0.02 5.3-0.56 6.25-1.47 0.86-0.82 1.59-1.16 1.61-0.75 0.03 0.41 1.02-1.05 2.2-3.25 1.18-2.2 2.24-4.45 2.35-5 0.11-0.55 0.67-3.7 1.25-7 0.58-3.3 1.32-10.5 1.65-16 0.33-5.5 1.06-11.8 1.63-14 0.57-2.2 2.04-5.57 3.28-7.5 1.72-2.66 3.19-3.67 6.18-4.22 2.15-0.4 4.62-1.52 5.48-2.5 0.85-0.98 2.09-2.79 2.75-4.03 0.65-1.24 1.19-4.61 1.2-7.5 0-2.89-0.6-6.15-1.35-7.25-0.74-1.1-2.79-2.67-4.55-3.5l-3.2-1.5c7.72-7.75 11.23-12.47 12.78-15.5 2.39-4.68 2.81-6.7 2.81-13.5 0-6.61-0.46-8.95-2.66-13.5-1.46-3.03-4.95-8.09-7.75-11.25-3.91-4.42-5.74-5.75-7.89-5.75-1.54 0-3.35 0.56-4.02 1.25-0.67 0.69-1.22 3.5-1.22 6.25l-0.01 5c-4.59-5.42-6.82-8.8-7.92-11-1.1-2.2-2-5.8-2-8 0-2.2 0.89-7.37 1.97-11.5 1.08-4.12 1.97-8.51 1.98-9.75 0.01-1.24-0.99-2.93-2.23-3.76-1.24-0.83-2.49-1.5-2.78-1.5-0.29 0.01-3.21 1.35-6.5 2.98z"/>
		<path id="Path 3" class="s1" d="m85.28 38.71c-3.33 2.63-7.48 6.59-9.22 8.79-1.74 2.2-3.64 5.8-4.22 8-0.57 2.2-0.81 5.8-0.51 8 0.29 2.2 2.37 7.71 4.6 12.25 3.16 6.4 3.87 8.75 3.19 10.5-0.48 1.24-1.94 2.53-3.25 2.88-1.3 0.34-3.72 0.36-5.37 0.04-1.66-0.32-5.57-2.95-8.75-5.88l-5.75-5.29c-1.58 5.04-2.03 7.63-2.04 9 0 1.38 0.72 4.53 1.59 7 0.88 2.47 3.29 6.53 5.37 9 2.08 2.47 5.98 5.95 8.68 7.73 4.89 3.21 4.94 3.22 17.9 3.23 10.76 0.01 13.69-0.32 17-1.9 2.2-1.06 6.44-4.09 9.42-6.74 3.23-2.87 6.35-6.84 7.74-9.82 1.39-3 2.32-6.9 2.33-9.75 0.01-2.61-0.61-6.21-1.36-8-0.76-1.79-2.81-5.05-4.56-7.25l-3.19-4c0.42 13.43 0.06 15.73-1.5 18.5-1.4 2.47-2.77 3.57-4.68 3.75-2.49 0.23-2.82-0.19-4.29-5.5-0.88-3.16-3.73-8.9-6.34-12.75-2.62-3.85-5.27-8.01-5.91-9.25-0.64-1.24-1.61-4.5-2.16-7.25-0.74-3.72-0.64-6.83 0.42-12.18 0.78-3.95 1.3-7.35 1.17-7.55-0.14-0.2-2.98 1.8-6.31 4.44zm-23.28 85.27c-0.83 0.52-1.5 2.24-1.5 3.83 0 1.59 0.67 3.65 1.5 4.58 1.34 1.51 4.23 1.7 26.5 1.69 22.66-0.01 25.16-0.18 26.72-1.8 0.95-0.98 1.75-2.9 1.77-4.28 0.02-1.37-0.53-3.07-1.22-3.77-0.96-0.95-7.49-1.26-26.77-1.23-14.29 0.02-26.16 0.45-27 0.98zm14.75 19.42c-0.41 0.33 0.1 2.74 1.14 5.35 1.09 2.73 2.57 10.92 3.47 19.25 0.87 7.97 1.75 15.63 1.95 17 0.21 1.38 0.67 3.51 1.03 4.75 0.36 1.24 1.56 2.7 2.66 3.25 1.41 0.7 2.58 0.63 3.96-0.25 1.07-0.69 2.4-3.05 2.95-5.25 0.54-2.2 1.46-10.41 2.04-18.25 0.58-7.84 0.83-14.7 0.55-15.25-0.28-0.55-0.95-1-1.5-1-0.55 0-2.58-0.68-4.5-1.5-1.92-0.82-3.5-2.18-3.5-3 0-0.82 1.01-1.72 2.25-1.99 1.24-0.26 3.71-0.49 5.5-0.5 1.79 0 3.25-0.46 3.25-1.01 0-0.55-0.56-1.01-1.25-1.03-0.69-0.02-5.3-0.29-10.25-0.61-4.95-0.31-9.34-0.3-9.75 0.04z"/>
	</g>
</svg>